<svg width="30" height="30" viewBox="0 0 30 30" fill="none" xmlns="http://www.w3.org/2000/svg">
<path d="M14.999 15C12.9365 15 11.1709 14.2657 9.70215 12.7969C8.2334 11.3282 7.49902 9.56253 7.49902 7.50003C7.49902 5.43753 8.2334 3.67191 9.70215 2.20316C11.1709 0.734406 12.9365 3.05176e-05 14.999 3.05176e-05C17.0615 3.05176e-05 18.8271 0.734406 20.2959 2.20316C21.7646 3.67191 22.499 5.43753 22.499 7.50003C22.499 9.56253 21.7646 11.3282 20.2959 12.7969C18.8271 14.2657 17.0615 15 14.999 15ZM-0.000976562 30V24.75C-0.000976562 23.6875 0.272774 22.7107 0.820274 21.8194C1.36652 20.9294 2.09277 20.25 2.99902 19.7813C4.93652 18.8125 6.90527 18.0857 8.90527 17.6007C10.9053 17.1169 12.9365 16.875 14.999 16.875C17.0615 16.875 19.0928 17.1169 21.0928 17.6007C23.0928 18.0857 25.0615 18.8125 26.999 19.7813C27.9053 20.25 28.6315 20.9294 29.1778 21.8194C29.7253 22.7107 29.999 23.6875 29.999 24.75V30H-0.000976562Z" fill="#1C1C1C"/>
</svg>
