<svg width="30" height="30" viewBox="0 0 30 30" fill="none" xmlns="http://www.w3.org/2000/svg">
<path d="M1 0C0.734784 0 0.48043 0.105357 0.292893 0.292893C0.105357 0.48043 0 0.734784 0 1C0 1.26522 0.105357 1.51957 0.292893 1.70711C0.48043 1.89464 0.734784 2 1 2H3.22L4.022 5.214L7.018 21.184C7.0609 21.4132 7.18251 21.6201 7.36182 21.7691C7.54113 21.9181 7.76686 21.9998 8 22H10C8.93913 22 7.92172 22.4214 7.17157 23.1716C6.42143 23.9217 6 24.9391 6 26C6 27.0609 6.42143 28.0783 7.17157 28.8284C7.92172 29.5786 8.93913 30 10 30C11.0609 30 12.0783 29.5786 12.8284 28.8284C13.5786 28.0783 14 27.0609 14 26C14 24.9391 13.5786 23.9217 12.8284 23.1716C12.0783 22.4214 11.0609 22 10 22H24C22.9391 22 21.9217 22.4214 21.1716 23.1716C20.4214 23.9217 20 24.9391 20 26C20 27.0609 20.4214 28.0783 21.1716 28.8284C21.9217 29.5786 22.9391 30 24 30C25.0609 30 26.0783 29.5786 26.8284 28.8284C27.5786 28.0783 28 27.0609 28 26C28 24.9391 27.5786 23.9217 26.8284 23.1716C26.0783 22.4214 25.0609 22 24 22H26C26.2331 21.9998 26.4589 21.9181 26.6382 21.7691C26.8175 21.6201 26.9391 21.4132 26.982 21.184L29.982 5.184C30.009 5.03967 30.0039 4.89117 29.9671 4.74904C29.9302 4.6069 29.8625 4.47463 29.7688 4.36161C29.675 4.24859 29.5576 4.1576 29.4247 4.0951C29.2918 4.03261 29.1468 4.00014 29 4H5.78L4.97 0.758C4.91602 0.541568 4.79122 0.349398 4.61546 0.212049C4.4397 0.0747014 4.22306 6.1623e-05 4 0H1ZM12 26C12 26.5304 11.7893 27.0391 11.4142 27.4142C11.0391 27.7893 10.5304 28 10 28C9.46957 28 8.96086 27.7893 8.58579 27.4142C8.21071 27.0391 8 26.5304 8 26C8 25.4696 8.21071 24.9609 8.58579 24.5858C8.96086 24.2107 9.46957 24 10 24C10.5304 24 11.0391 24.2107 11.4142 24.5858C11.7893 24.9609 12 25.4696 12 26ZM26 26C26 26.5304 25.7893 27.0391 25.4142 27.4142C25.0391 27.7893 24.5304 28 24 28C23.4696 28 22.9609 27.7893 22.5858 27.4142C22.2107 27.0391 22 26.5304 22 26C22 25.4696 22.2107 24.9609 22.5858 24.5858C22.9609 24.2107 23.4696 24 24 24C24.5304 24 25.0391 24.2107 25.4142 24.5858C25.7893 24.9609 26 25.4696 26 26ZM22.708 10.708L16.708 16.708C16.6151 16.8011 16.5048 16.875 16.3833 16.9254C16.2618 16.9758 16.1315 17.0018 16 17.0018C15.8685 17.0018 15.7382 16.9758 15.6167 16.9254C15.4952 16.875 15.3849 16.8011 15.292 16.708L12.292 13.708C12.199 13.615 12.1253 13.5046 12.075 13.3832C12.0246 13.2617 11.9987 13.1315 11.9987 13C11.9987 12.8685 12.0246 12.7383 12.075 12.6168C12.1253 12.4954 12.199 12.385 12.292 12.292C12.385 12.199 12.4954 12.1253 12.6168 12.075C12.7383 12.0246 12.8685 11.9987 13 11.9987C13.1315 11.9987 13.2617 12.0246 13.3832 12.075C13.5046 12.1253 13.615 12.199 13.708 12.292L16 14.586L21.292 9.292C21.385 9.19902 21.4954 9.12527 21.6168 9.07495C21.7383 9.02464 21.8685 8.99874 22 8.99874C22.1315 8.99874 22.2617 9.02464 22.3832 9.07495C22.5046 9.12527 22.615 9.19902 22.708 9.292C22.801 9.38498 22.8747 9.49535 22.925 9.61683C22.9754 9.73831 23.0013 9.86851 23.0013 10C23.0013 10.1315 22.9754 10.2617 22.925 10.3832C22.8747 10.5046 22.801 10.615 22.708 10.708Z" fill="#1C1C1C"/>
</svg>
