<svg width="28" height="20" viewBox="0 0 28 20" fill="none" xmlns="http://www.w3.org/2000/svg">
<path d="M24.3478 4.30774H24.2391C24.1508 4.07213 24.0128 3.85848 23.8346 3.68142C23.6564 3.50437 23.4421 3.3681 23.2065 3.28196L14.5109 0.1064C14.1248 -0.0354666 13.7012 -0.0354666 13.3152 0.1064L4.61957 3.28196C4.38397 3.3681 4.16971 3.50437 3.99147 3.68142C3.81324 3.85848 3.67525 4.07213 3.58696 4.30774H3.47826C2.55665 4.31061 1.67361 4.67945 1.02193 5.3337C0.370246 5.98796 0.00286662 6.8745 0 7.79976L0 10.4188C0.00286662 11.344 0.370246 12.2306 1.02193 12.8848C1.67361 13.5391 2.55665 13.9079 3.47826 13.9108H4.04348C4.76087 15.4822 6.1413 16.8572 8.13043 17.9703C10.4239 19.247 12.8696 19.8254 13.5543 19.9673L13.913 20L14.2717 19.9673C14.9565 19.8254 17.4022 19.247 19.6957 17.9703C21.6848 16.8572 23.0652 15.4822 23.7826 13.9108H24.3478C25.2694 13.9079 26.1525 13.5391 26.8042 12.8848C27.4558 12.2306 27.8232 11.344 27.8261 10.4188V7.79976C27.8232 6.8745 27.4558 5.98796 26.8042 5.3337C26.1525 4.67945 25.2694 4.31061 24.3478 4.30774ZM3.47826 12.1648C3.01701 12.1648 2.57466 11.9808 2.24851 11.6534C1.92236 11.3259 1.73913 10.8818 1.73913 10.4188V7.79976C1.73913 7.33669 1.92236 6.89258 2.24851 6.56514C2.57466 6.2377 3.01701 6.05375 3.47826 6.05375V11.2918C3.47796 11.584 3.49976 11.8759 3.54348 12.1648H3.47826ZM18.2609 13.0378H9.56522C9.33459 13.0378 9.11342 12.9458 8.95034 12.7821C8.78727 12.6184 8.69565 12.3963 8.69565 12.1648C8.69565 11.9332 8.78727 11.7112 8.95034 11.5475C9.11342 11.3838 9.33459 11.2918 9.56522 11.2918H18.2609C18.4915 11.2918 18.7127 11.3838 18.8757 11.5475C19.0388 11.7112 19.1304 11.9332 19.1304 12.1648C19.1304 12.3963 19.0388 12.6184 18.8757 12.7821C18.7127 12.9458 18.4915 13.0378 18.2609 13.0378ZM18.2609 9.54577H9.56522C9.33459 9.54577 9.11342 9.45379 8.95034 9.29007C8.78727 9.12635 8.69565 8.9043 8.69565 8.67276C8.69565 8.44123 8.78727 8.21917 8.95034 8.05545C9.11342 7.89173 9.33459 7.79976 9.56522 7.79976H18.2609C18.4915 7.79976 18.7127 7.89173 18.8757 8.05545C19.0388 8.21917 19.1304 8.44123 19.1304 8.67276C19.1304 8.9043 19.0388 9.12635 18.8757 9.29007C18.7127 9.45379 18.4915 9.54577 18.2609 9.54577ZM26.087 10.4188C26.087 10.8818 25.9037 11.3259 25.5776 11.6534C25.2514 11.9808 24.8091 12.1648 24.3478 12.1648H24.2826C24.3263 11.8759 24.3481 11.584 24.3478 11.2918V6.05375C24.8091 6.05375 25.2514 6.2377 25.5776 6.56514C25.9037 6.89258 26.087 7.33669 26.087 7.79976V10.4188Z" fill="#1C1C1C"/>
</svg>
