<svg width="34" height="30" viewBox="0 0 34 30" fill="none" xmlns="http://www.w3.org/2000/svg">
<path d="M32.6776 6.14793C32.158 4.94486 31.4088 3.85465 30.4719 2.93832C29.5344 2.01927 28.4289 1.28891 27.2158 0.786955C25.9578 0.264397 24.6086 -0.00307748 23.2464 5.77639e-05C21.3354 5.77639e-05 19.4709 0.523364 17.8505 1.51183C17.4629 1.74829 17.0947 2.008 16.7458 2.29098C16.3969 2.008 16.0287 1.74829 15.641 1.51183C14.0207 0.523364 12.1562 5.77639e-05 10.2452 5.77639e-05C8.86907 5.77639e-05 7.53561 0.263649 6.2758 0.786955C5.05862 1.29088 3.96162 2.01575 3.01967 2.93832C2.08158 3.85361 1.33221 4.94409 0.814032 6.14793C0.27522 7.39999 0 8.72958 0 10.0979C0 11.3887 0.263591 12.7338 0.786897 14.1022C1.22492 15.2457 1.85289 16.4319 2.65529 17.6297C3.92673 19.5252 5.67496 21.5021 7.84571 23.5062C11.443 26.8282 15.0053 29.123 15.1565 29.216L16.0752 29.8052C16.4822 30.065 17.0055 30.065 17.4125 29.8052L18.3312 29.216C18.4824 29.1191 22.0409 26.8282 25.642 23.5062C27.8127 21.5021 29.561 19.5252 30.8324 17.6297C31.6348 16.4319 32.2667 15.2457 32.7008 14.1022C33.2241 12.7338 33.4877 11.3887 33.4877 10.0979C33.4916 8.72958 33.2164 7.39999 32.6776 6.14793Z" fill="#1C1C1C"/>
</svg>
