<svg width="15" height="16" viewBox="0 0 15 16" fill="none" xmlns="http://www.w3.org/2000/svg">
<path d="M2.00251 3.05C1.43736 3.16476 0.929268 3.47136 0.564317 3.91787C0.199365 4.36438 -4.84177e-07 4.92332 -4.5897e-07 5.5C-4.33762e-07 6.07668 0.199366 6.63562 0.564317 7.08213C0.929269 7.52864 1.43736 7.83524 2.00251 7.95L2.00251 15.5C2.00251 15.6326 2.05518 15.7598 2.14895 15.8536C2.24272 15.9473 2.3699 16 2.50251 16C2.63511 16 2.76229 15.9473 2.85606 15.8536C2.94983 15.7598 3.00251 15.6326 3.00251 15.5L3.00251 7.95C3.56765 7.83524 4.07574 7.52864 4.44069 7.08213C4.80565 6.63562 5.00501 6.07668 5.00501 5.5C5.00501 4.92332 4.80565 4.36438 4.44069 3.91787C4.07574 3.47136 3.56765 3.16476 3.00251 3.05L3.00251 0.5C3.00251 0.367391 2.94983 0.240214 2.85606 0.146446C2.76229 0.052678 2.63511 -1.15185e-07 2.50251 -1.09388e-07C2.3699 -1.03592e-07 2.24272 0.052678 2.14895 0.146446C2.05518 0.240214 2.00251 0.367391 2.00251 0.5L2.00251 3.05ZM4.00251 5.5C4.00251 5.69698 3.96371 5.89204 3.88833 6.07402C3.81294 6.25601 3.70245 6.42137 3.56317 6.56066C3.42388 6.69995 3.25852 6.81044 3.07653 6.88582C2.89454 6.9612 2.69949 7 2.50251 7C2.30552 7 2.11047 6.9612 1.92848 6.88582C1.74649 6.81044 1.58113 6.69995 1.44185 6.56066C1.30256 6.42137 1.19207 6.25601 1.11669 6.07403C1.0413 5.89204 1.00251 5.69698 1.00251 5.5C1.00251 5.10218 1.16054 4.72064 1.44185 4.43934C1.72315 4.15804 2.10468 4 2.50251 4C2.90033 4 3.28186 4.15804 3.56317 4.43934C3.84447 4.72064 4.00251 5.10218 4.00251 5.5ZM11.0025 8.05C10.4374 8.16476 9.92927 8.47136 9.56432 8.91787C9.19937 9.36438 9 9.92332 9 10.5C9 11.0767 9.19937 11.6356 9.56432 12.0821C9.92927 12.5286 10.4374 12.8352 11.0025 12.95L11.0025 15.5C11.0025 15.6326 11.0552 15.7598 11.149 15.8536C11.2427 15.9473 11.3699 16 11.5025 16C11.6351 16 11.7623 15.9473 11.8561 15.8536C11.9498 15.7598 12.0025 15.6326 12.0025 15.5L12.0025 12.95C12.5677 12.8352 13.0757 12.5286 13.4407 12.0821C13.8056 11.6356 14.005 11.0767 14.005 10.5C14.005 9.92332 13.8056 9.36438 13.4407 8.91787C13.0757 8.47136 12.5677 8.16476 12.0025 8.05L12.0025 0.499999C12.0025 0.367391 11.9498 0.240214 11.8561 0.146446C11.7623 0.0526776 11.6351 -5.08587e-07 11.5025 -5.02791e-07C11.3699 -4.96994e-07 11.2427 0.0526776 11.149 0.146446C11.0552 0.240214 11.0025 0.367391 11.0025 0.5L11.0025 8.05ZM13.0025 10.5C13.0025 10.8978 12.8445 11.2794 12.5632 11.5607C12.2819 11.842 11.9003 12 11.5025 12C11.1047 12 10.7232 11.842 10.4418 11.5607C10.1605 11.2794 10.0025 10.8978 10.0025 10.5C10.0025 10.1022 10.1605 9.72064 10.4418 9.43934C10.7231 9.15803 11.1047 9 11.5025 9C11.9003 9 12.2819 9.15803 12.5632 9.43934C12.8445 9.72064 13.0025 10.1022 13.0025 10.5Z" fill="#1C1C1C"/>
</svg>
