<svg width="14" height="15" viewBox="0 0 14 15" fill="none" xmlns="http://www.w3.org/2000/svg">
<path d="M12.8661 12.8557C12.8661 13.4244 12.6401 13.9698 12.238 14.3719C11.8359 14.7741 11.2905 15 10.7217 15H7.63927C7.60372 15 7.56963 14.9859 7.5445 14.9607C7.51937 14.9356 7.50525 14.9015 7.50525 14.866V8.70104C7.50525 8.66549 7.51937 8.6314 7.5445 8.60627C7.56963 8.58113 7.60372 8.56701 7.63927 8.56701H12.598C12.6691 8.56701 12.7373 8.59525 12.7876 8.64552C12.8378 8.69579 12.8661 8.76397 12.8661 8.83506V12.8557ZM7.50525 7.36083V3.74228H6.43308V7.36083C6.43308 7.39637 6.41896 7.43046 6.39383 7.4556C6.36869 7.48073 6.33461 7.49485 6.29906 7.49485H1.60834C1.42571 7.49484 1.24442 7.46368 1.07226 7.40271C0.758975 7.29148 0.487764 7.08607 0.295814 6.81464C0.103863 6.54321 0.000569344 6.21905 9.63211e-05 5.8866V5.35052C9.63211e-05 4.92399 0.169537 4.51492 0.471141 4.21332C0.772745 3.91171 1.18181 3.74228 1.60834 3.74228H2.96664C2.97831 3.74209 2.98973 3.73886 2.99977 3.7329C3.00981 3.72694 3.01812 3.71847 3.02387 3.70831C3.02963 3.69815 3.03263 3.68667 3.03258 3.675C3.03253 3.66333 3.02944 3.65187 3.0236 3.64176C2.7134 3.11804 2.61265 2.4964 2.74155 1.90151C2.87045 1.30662 3.21948 0.782448 3.71865 0.4341C4.21781 0.0857522 4.83021 -0.0610178 5.43305 0.0232195C6.03589 0.107457 6.58461 0.416474 6.96916 0.888308C7.35372 0.416474 7.90243 0.107457 8.50528 0.0232195C9.10812 -0.0610178 9.72052 0.0857522 10.2197 0.4341C10.7188 0.782448 11.0679 1.30662 11.1968 1.90151C11.3257 2.4964 11.2249 3.11804 10.9147 3.64176C10.9089 3.65187 10.9058 3.66333 10.9057 3.675C10.9057 3.68667 10.9087 3.69815 10.9145 3.70831C10.9202 3.71847 10.9285 3.72694 10.9386 3.7329C10.9486 3.73886 10.96 3.74209 10.9717 3.74228H12.33C12.7565 3.74228 13.1656 3.91171 13.4672 4.21332C13.7688 4.51492 13.9382 4.92399 13.9382 5.35052V5.8866C13.9378 6.21905 13.8345 6.54321 13.6425 6.81464C13.4506 7.08607 13.1794 7.29148 12.8661 7.40271C12.6939 7.46368 12.5126 7.49484 12.33 7.49485H7.63927C7.60372 7.49485 7.56963 7.48073 7.5445 7.4556C7.51937 7.43046 7.50525 7.39637 7.50525 7.36083ZM6.43308 2.40207C6.43308 2.137 6.35448 1.87789 6.20722 1.65749C6.05995 1.4371 5.85064 1.26532 5.60575 1.16388C5.36086 1.06244 5.09139 1.0359 4.83142 1.08762C4.57144 1.13933 4.33264 1.26697 4.14521 1.4544C3.95778 1.64183 3.83014 1.88063 3.77842 2.14061C3.72671 2.40058 3.75325 2.67005 3.85469 2.91494C3.95613 3.15983 4.1279 3.36915 4.3483 3.51641C4.56869 3.66367 4.82781 3.74228 5.09288 3.74228H6.43308V2.40207ZM8.94128 1.06521C8.75767 1.05205 8.57332 1.07686 8.39972 1.13808C8.22612 1.1993 8.06699 1.29563 7.93226 1.42105C7.79753 1.54648 7.69008 1.69832 7.61661 1.8671C7.54315 2.03588 7.50524 2.21799 7.50525 2.40207V3.74228H8.84545C9.192 3.74139 9.52473 3.60629 9.77381 3.36535C10.0229 3.12441 10.169 2.79635 10.1814 2.45002C10.1938 2.1037 10.0715 1.76603 9.84031 1.50789C9.60909 1.24976 9.28687 1.09122 8.94128 1.06555V1.06521ZM6.29906 15H3.21659C2.64788 15 2.10246 14.7741 1.70032 14.3719C1.29818 13.9698 1.07226 13.4244 1.07226 12.8557V8.83506C1.07226 8.76397 1.1005 8.69579 1.15077 8.64552C1.20104 8.59525 1.26921 8.56701 1.3403 8.56701H6.29906C6.33461 8.56701 6.36869 8.58113 6.39383 8.60627C6.41896 8.6314 6.43308 8.66549 6.43308 8.70104V14.866C6.43308 14.9015 6.41896 14.9356 6.39383 14.9607C6.36869 14.9859 6.33461 15 6.29906 15Z" fill="black"/>
</svg>
