<svg width="18" height="19" viewBox="0 0 18 19" fill="none" xmlns="http://www.w3.org/2000/svg">
<path d="M9.11336 7.70881V11.2286H14.0009C13.546 13.4653 11.6418 14.7505 9.11336 14.7505C6.16834 14.7099 3.8022 12.311 3.8022 9.3657C3.8022 6.42039 6.16834 4.02146 9.11336 3.98093C10.3375 3.97947 11.524 4.40428 12.469 5.18242L15.1208 2.53058C12.0789 -0.14363 7.6365 -0.487586 4.21925 1.68652C0.801997 3.86063 -0.768796 8.0303 0.364585 11.9187C1.49797 15.8071 5.06314 18.4798 9.11336 18.4773C13.6694 18.4773 17.8124 15.1635 17.8124 9.36519C17.8054 8.80691 17.737 8.25111 17.6084 7.70779L9.11336 7.70881Z" fill="#FF4545"/>
</svg>
