<svg width="28" height="30" viewBox="0 0 28 30" fill="none" xmlns="http://www.w3.org/2000/svg">
<path d="M16.0038 0.768434C15.4531 0.273709 14.739 3.05176e-05 13.9988 3.05176e-05C13.2586 3.05176e-05 12.5445 0.273709 11.9938 0.768434L0.993987 10.6543C0.680986 10.9358 0.430725 11.28 0.259474 11.6645C0.088223 12.049 -0.000183927 12.4653 2.87294e-07 12.8863V27.0001C2.87294e-07 27.7957 0.316067 28.5588 0.878668 29.1214C1.44127 29.684 2.20432 30 2.99996 30H24.9997C25.7953 30 26.5583 29.684 27.1209 29.1214C27.6835 28.5588 27.9996 27.7957 27.9996 27.0001V12.8863C27.9998 12.4653 27.9114 12.049 27.7401 11.6645C27.5689 11.28 27.3186 10.9358 27.0056 10.6543L16.0058 0.768434H16.0038ZM7.99989 18.0002C7.46946 18.0002 6.96076 17.7895 6.5857 17.4144C6.21063 17.0394 5.99992 16.5306 5.99992 16.0002C5.99992 15.4698 6.21063 14.9611 6.5857 14.586C6.96076 14.211 7.46946 14.0003 7.99989 14.0003C8.53032 14.0003 9.03902 14.211 9.41408 14.586C9.78915 14.9611 9.99986 15.4698 9.99986 16.0002C9.99986 16.5306 9.78915 17.0394 9.41408 17.4144C9.03902 17.7895 8.53032 18.0002 7.99989 18.0002ZM15.9998 16.0002C15.9998 16.5306 15.7891 17.0394 15.414 17.4144C15.0389 17.7895 14.5302 18.0002 13.9998 18.0002C13.4694 18.0002 12.9607 17.7895 12.5856 17.4144C12.2105 17.0394 11.9998 16.5306 11.9998 16.0002C11.9998 15.4698 12.2105 14.9611 12.5856 14.586C12.9607 14.211 13.4694 14.0003 13.9998 14.0003C14.5302 14.0003 15.0389 14.211 15.414 14.586C15.7891 14.9611 15.9998 15.4698 15.9998 16.0002ZM19.9997 18.0002C19.4693 18.0002 18.9606 17.7895 18.5855 17.4144C18.2105 17.0394 17.9998 16.5306 17.9998 16.0002C17.9998 15.4698 18.2105 14.9611 18.5855 14.586C18.9606 14.211 19.4693 14.0003 19.9997 14.0003C20.5301 14.0003 21.0389 14.211 21.4139 14.586C21.789 14.9611 21.9997 15.4698 21.9997 16.0002C21.9997 16.5306 21.789 17.0394 21.4139 17.4144C21.0389 17.7895 20.5301 18.0002 19.9997 18.0002ZM9.99986 22.0001C9.99986 22.5306 9.78915 23.0393 9.41408 23.4143C9.03902 23.7894 8.53032 24.0001 7.99989 24.0001C7.46946 24.0001 6.96076 23.7894 6.5857 23.4143C6.21063 23.0393 5.99992 22.5306 5.99992 22.0001C5.99992 21.4697 6.21063 20.961 6.5857 20.5859C6.96076 20.2109 7.46946 20.0002 7.99989 20.0002C8.53032 20.0002 9.03902 20.2109 9.41408 20.5859C9.78915 20.961 9.99986 21.4697 9.99986 22.0001ZM13.9998 24.0001C13.4694 24.0001 12.9607 23.7894 12.5856 23.4143C12.2105 23.0393 11.9998 22.5306 11.9998 22.0001C11.9998 21.4697 12.2105 20.961 12.5856 20.5859C12.9607 20.2109 13.4694 20.0002 13.9998 20.0002C14.5302 20.0002 15.0389 20.2109 15.414 20.5859C15.7891 20.961 15.9998 21.4697 15.9998 22.0001C15.9998 22.5306 15.7891 23.0393 15.414 23.4143C15.0389 23.7894 14.5302 24.0001 13.9998 24.0001ZM21.9997 22.0001C21.9997 22.5306 21.789 23.0393 21.4139 23.4143C21.0389 23.7894 20.5301 24.0001 19.9997 24.0001C19.4693 24.0001 18.9606 23.7894 18.5855 23.4143C18.2105 23.0393 17.9998 22.5306 17.9998 22.0001C17.9998 21.4697 18.2105 20.961 18.5855 20.5859C18.9606 20.2109 19.4693 20.0002 19.9997 20.0002C20.5301 20.0002 21.0389 20.2109 21.4139 20.5859C21.789 20.961 21.9997 21.4697 21.9997 22.0001Z" fill="#FF4545"/>
</svg>
