<svg width="11" height="10" viewBox="0 0 11 10" fill="none" xmlns="http://www.w3.org/2000/svg">
<path d="M10.9444 2.71667L10.3669 0.844444C10.2458 0.344444 9.81682 0 9.31629 0H1.67636C1.18133 0 0.746808 0.35 0.631302 0.844444L0.0537687 2.71667C-0.199246 3.81111 0.521295 4.44444 0.548797 4.47778V8.88889C0.548797 9.5 1.04383 10 1.64886 10H9.3493C9.95433 10 10.4494 9.5 10.4494 8.88889V4.47778C11.0654 3.85556 11.0489 3.13889 10.9444 2.71667ZM6.04911 1.11111H7.12717L7.42419 3.06667C7.47369 3.46111 7.20967 3.88889 6.72015 3.88889C6.35163 3.88889 6.04911 3.56111 6.04911 3.16111V1.11111ZM2.4409 3.25556C2.3969 3.61667 2.11089 3.88889 1.77537 3.88889C1.26384 3.88889 1.03282 3.35 1.12083 2.97778L1.67636 1.11111H2.75992L2.4409 3.25556ZM4.67403 7.22222H3.84898V7.77778H4.67403C4.82804 7.77778 4.94905 7.9 4.94905 8.05556C4.94905 8.21111 4.82804 8.33333 4.67403 8.33333H3.57397C3.41996 8.33333 3.29895 8.21111 3.29895 8.05556V6.94444C3.29895 6.78889 3.41996 6.66667 3.57397 6.66667H4.39902V6.11111H3.57397C3.41996 6.11111 3.29895 5.98889 3.29895 5.83333C3.29895 5.67778 3.41996 5.55556 3.57397 5.55556H4.67403C4.82804 5.55556 4.94905 5.67778 4.94905 5.83333V6.94444C4.94905 7.1 4.82804 7.22222 4.67403 7.22222ZM4.94905 3.16111C4.94905 3.56111 4.64653 3.88889 4.23951 3.88889C3.82698 3.88889 3.52447 3.5 3.56847 3.06667L3.87099 1.11111H4.94905V3.16111ZM7.42419 8.33333C7.27018 8.33333 7.14917 8.21111 7.14917 8.05556V7.22222H6.32412C6.17012 7.22222 6.04911 7.1 6.04911 6.94444V5.83333C6.04911 5.67778 6.17012 5.55556 6.32412 5.55556C6.47813 5.55556 6.59914 5.67778 6.59914 5.83333V6.66667H7.14917V5.83333C7.14917 5.67778 7.27018 5.55556 7.42419 5.55556C7.5782 5.55556 7.6992 5.67778 7.6992 5.83333V8.05556C7.6992 8.21111 7.5782 8.33333 7.42419 8.33333ZM9.22279 3.88889C8.88727 3.88889 8.59575 3.61667 8.55725 3.25556L8.23823 1.11111L9.29979 1.10556L9.87733 2.97778C9.96533 3.35 9.73982 3.88889 9.22279 3.88889Z" fill="#454545"/>
</svg>
