<svg width="10" height="12" viewBox="0 0 10 12" fill="none" xmlns="http://www.w3.org/2000/svg">
<path d="M5 1C3.93952 1.00123 2.92283 1.41553 2.17296 2.15201C1.42308 2.88849 1.00126 3.88703 1 4.92857C0.998734 5.77972 1.28182 6.60778 1.80582 7.28571C1.80582 7.28571 1.91491 7.42679 1.93273 7.44714L5 11L8.06872 7.44536C8.08472 7.42643 8.19418 7.28571 8.19418 7.28571L8.19454 7.28464C8.71829 6.607 9.00124 5.77933 9 4.92857C8.99874 3.88703 8.57692 2.88849 7.82704 2.15201C7.07717 1.41553 6.06048 1.00123 5 1V1ZM5 6.35714C4.71232 6.35714 4.4311 6.27336 4.1919 6.11639C3.9527 5.95941 3.76627 5.7363 3.65618 5.47526C3.54609 5.21422 3.51728 4.92699 3.5734 4.64987C3.62953 4.37276 3.76806 4.11821 3.97148 3.91842C4.1749 3.71863 4.43408 3.58257 4.71623 3.52745C4.99839 3.47233 5.29085 3.50062 5.55663 3.60874C5.82241 3.71687 6.04958 3.89997 6.20941 4.1349C6.36924 4.36983 6.45454 4.64603 6.45454 4.92857C6.45406 5.30731 6.30066 5.6704 6.02799 5.9382C5.75531 6.20601 5.38562 6.35667 5 6.35714V6.35714Z" stroke="#1C1C1C" stroke-width="0.8"/>
</svg>
