<svg width="80" height="56" viewBox="0 0 80 56" fill="none" xmlns="http://www.w3.org/2000/svg">
<path fill-rule="evenodd" clip-rule="evenodd" d="M50.1953 0.395393H76.4714C76.8973 0.397113 77.3053 0.567621 77.6065 0.869773C77.9077 1.17192 78.0777 1.58124 78.0794 2.00854V19.9295H78.2357C78.7042 19.9312 79.153 20.1192 79.4836 20.4521C79.8143 20.7851 80 21.2359 80 21.7059V23.6652C79.9983 24.1428 79.8084 24.6002 79.4718 24.9379C79.1352 25.2756 78.6792 25.466 78.2031 25.4678H65.7878C75.013 26.2907 80.2865 34.8985 79.7135 46.0925H71.5039C71.3601 48.5887 70.2702 50.9352 68.4577 52.6514C66.6451 54.3676 64.247 55.3236 61.7546 55.3236C59.2621 55.3236 56.864 54.3676 55.0514 52.6514C53.2389 50.9352 52.149 48.5887 52.0052 46.0925H27.2656C27.2656 45.9162 27.2656 45.7399 27.2656 45.5701C27.2816 46.8364 27.2076 48.1022 27.0443 49.358L21.8945 46.922C21.7491 48.5198 21.2221 50.0589 20.358 51.4091C19.4939 52.7592 18.3182 53.8806 16.9305 54.6783C15.5428 55.476 13.9839 55.9266 12.3858 55.9918C10.7877 56.0569 9.19747 55.7349 7.74976 55.0528C6.30206 54.3708 5.0395 53.3489 4.06898 52.0735C3.09847 50.7982 2.44857 49.3071 2.17432 47.7264C1.90008 46.1457 2.00956 44.522 2.49349 42.9927C2.97742 41.4635 3.82156 40.0737 4.95443 38.9411L0 36.5704C4.1276 31.8616 9.11458 29.8827 15.1367 31.2411C17.2917 31.7897 19.3099 32.2796 15.0846 31.2411C16.1312 23.3481 18.451 15.6785 21.9531 8.53297L18.8802 8.48726C18.2292 8.48726 17.5456 8.65053 17.1094 8.33051C16.7219 8.30231 16.3476 8.17766 16.0202 7.96784C15.6928 7.75803 15.4227 7.46966 15.2344 7.12882C14.7908 6.38109 14.5652 5.52351 14.5833 4.65358C14.5654 3.78161 14.7909 2.92198 15.2344 2.17181C15.5302 1.66717 15.9899 1.27981 16.5365 1.07461C16.5266 1.00968 16.5266 0.943622 16.5365 0.878684C17.2591 -0.30342 18.6849 0.0492519 19.9544 0.0492519L21.1914 0.127623C22.1081 0.253714 22.9922 0.555245 23.7956 1.01583L25.2083 1.81261H26.3542L30.2083 2.55714C31.4648 2.80532 31.6471 2.70082 31.3542 4.24866C31.3143 4.44765 31.2621 4.64396 31.1979 4.83645C30.8203 5.9663 30.5469 5.54832 29.349 5.30668L25.7487 4.56868C25.8854 6.02508 25.4232 7.83416 24.7786 9.89141C26.8425 11.6482 27.78 14.1496 26.3607 17.4543L22.9232 28.0801C28.6914 32.1816 32.1549 35.9173 32.3568 41.9846H39.668C44.3685 38.4121 43.5742 32.051 38.431 27.9887V25.4678V21.6537C38.431 20.4389 39.082 19.8903 40.2865 19.9295H48.5872V2.00854C48.589 1.58124 48.7589 1.17192 49.0601 0.869773C49.3613 0.567621 49.7694 0.397113 50.1953 0.395393ZM15.8594 44.1006L10.944 41.7952C10.0595 42.0025 9.26129 42.4808 8.66004 43.1637C8.05879 43.8467 7.68434 44.7004 7.58865 45.6065C7.49295 46.5126 7.68075 47.4261 8.126 48.2203C8.57125 49.0145 9.25186 49.6499 10.0734 50.0385C10.895 50.4271 11.8167 50.5496 12.7108 50.3889C13.6048 50.2283 14.4269 49.7924 15.0629 49.1419C15.6988 48.4914 16.1172 47.6584 16.2599 46.7586C16.4027 45.8587 16.2627 44.9366 15.8594 44.1202V44.1006ZM16.5755 2.13263C16.6341 3.78496 16.7383 5.90753 16.8164 7.3574C16.6629 7.21994 16.5292 7.06167 16.4193 6.88717C16.0208 6.20248 15.8202 5.42004 15.8398 4.62746C15.82 3.83692 16.0207 3.05654 16.4193 2.37427C16.4714 2.2959 16.5234 2.21753 16.5755 2.15222V2.13263ZM63.9453 3.17105C64.3366 3.17283 64.7112 3.33019 64.987 3.60863C65.2201 3.84591 65.3687 4.15365 65.4099 4.48421C65.4511 4.81478 65.3825 5.14975 65.2148 5.4373C65.981 5.55299 66.7278 5.7727 67.4349 6.09039C70.6901 7.72313 72.474 10.2767 72.474 14.0712C72.4743 14.1818 72.4328 14.2885 72.3579 14.3696C72.283 14.4508 72.1803 14.5006 72.0703 14.5088H55.8398C55.7829 14.5088 55.7265 14.4974 55.6739 14.4754C55.6213 14.4533 55.5737 14.421 55.5337 14.3803C55.4937 14.3395 55.4622 14.2912 55.441 14.2382C55.4198 14.1851 55.4093 14.1284 55.4102 14.0712C55.3584 12.3889 55.8109 10.7296 56.7093 9.308C57.6076 7.88639 58.9104 6.76782 60.4492 6.09692C61.1549 5.77544 61.9023 5.55557 62.6693 5.44383C62.5005 5.1566 62.4313 4.82138 62.4725 4.49053C62.5137 4.15969 62.6631 3.85186 62.8971 3.61516C63.1749 3.33573 63.5519 3.17835 63.9453 3.17758V3.17105ZM53.6198 17.0363V15.815C53.6189 15.7982 53.6215 15.7813 53.6273 15.7655C53.6331 15.7497 53.6421 15.7352 53.6536 15.723C53.6652 15.7108 53.6792 15.701 53.6946 15.6944C53.71 15.6878 53.7267 15.6844 53.7435 15.6844H74.082C74.0988 15.6844 74.1155 15.6878 74.1309 15.6944C74.1464 15.701 74.1603 15.7108 74.1719 15.723C74.1835 15.7352 74.1924 15.7497 74.1983 15.7655C74.2041 15.7813 74.2066 15.7982 74.2057 15.815V17.0363C74.2057 17.0692 74.1927 17.1008 74.1695 17.124C74.1463 17.1473 74.1148 17.1604 74.082 17.1604H53.7435C53.7107 17.1604 53.6792 17.1473 53.656 17.124C53.6328 17.1008 53.6198 17.0692 53.6198 17.0363ZM66.0482 46.1056C66.005 47.2189 65.5337 48.2722 64.7332 49.0445C63.9327 49.8169 62.8652 50.2483 61.7546 50.2483C60.6439 50.2483 59.5764 49.8169 58.7759 49.0445C57.9754 48.2722 57.5042 47.2189 57.4609 46.1056H66.0482Z" fill="#FF4545"/>
</svg>
