<svg width="15" height="15" viewBox="0 0 15 15" fill="none" xmlns="http://www.w3.org/2000/svg">
<path d="M12.375 5.25C13.8225 5.25 15 4.0725 15 2.625C15 1.1775 13.8225 0 12.375 0C10.9275 0 9.75 1.1775 9.75 2.625C9.75 4.0725 10.9275 5.25 12.375 5.25ZM12.375 6.75C12.75 6.75 13.125 6.6975 13.5 6.5925V11.25C13.5 13.32 11.82 15 9.75 15H3.75C1.68 15 0 13.32 0 11.25V5.25C0 3.18 1.68 1.5 3.75 1.5H8.4075C8.23311 2.11351 8.20344 2.75911 8.32082 3.38602C8.43821 4.01293 8.69945 4.60406 9.08399 5.11291C9.46854 5.62176 9.9659 6.03445 10.537 6.31852C11.108 6.60259 11.7372 6.75029 12.375 6.75Z" fill="black"/>
</svg>
