<svg width="20" height="14" viewBox="0 0 20 14" fill="none" xmlns="http://www.w3.org/2000/svg">
<path d="M3.25 0C2.38805 0 1.5614 0.34241 0.951903 0.951903C0.34241 1.5614 0 2.38805 0 3.25V4.5H20V3.25C20 2.8232 19.9159 2.40059 19.7526 2.00628C19.5893 1.61197 19.3499 1.25369 19.0481 0.951903C18.7463 0.650112 18.388 0.410719 17.9937 0.247392C17.5994 0.0840639 17.1768 0 16.75 0H3.25ZM20 6H0V10.75C0 11.612 0.34241 12.4386 0.951903 13.0481C1.5614 13.6576 2.38805 14 3.25 14H16.75C17.1768 14 17.5994 13.9159 17.9937 13.7526C18.388 13.5893 18.7463 13.3499 19.0481 13.0481C19.3499 12.7463 19.5893 12.388 19.7526 11.9937C19.9159 11.5994 20 11.1768 20 10.75V6ZM13.75 9.5H16.25C16.4489 9.5 16.6397 9.57902 16.7803 9.71967C16.921 9.86032 17 10.0511 17 10.25C17 10.4489 16.921 10.6397 16.7803 10.7803C16.6397 10.921 16.4489 11 16.25 11H13.75C13.5511 11 13.3603 10.921 13.2197 10.7803C13.079 10.6397 13 10.4489 13 10.25C13 10.0511 13.079 9.86032 13.2197 9.71967C13.3603 9.57902 13.5511 9.5 13.75 9.5Z" fill="black"/>
</svg>
