<svg width="20" height="20" viewBox="0 0 20 20" fill="none" xmlns="http://www.w3.org/2000/svg">
<path fill-rule="evenodd" clip-rule="evenodd" d="M18.3333 3.88889C17.8913 3.88889 17.4674 4.06448 17.1548 4.37704C16.8423 4.6896 16.6667 5.11353 16.6667 5.55556V6.66667H20V5.55556C20 5.11353 19.8244 4.6896 19.5118 4.37704C19.1993 4.06448 18.7754 3.88889 18.3333 3.88889ZM20 7.77778H16.6667V16.9444L18.3333 19.4444L20 16.9444V7.77778ZM0 1.66667V18.3333C0 18.7754 0.175595 19.1993 0.488155 19.5118C0.800716 19.8244 1.22464 20 1.66667 20H13.8889C14.3309 20 14.7548 19.8244 15.0674 19.5118C15.38 19.1993 15.5556 18.7754 15.5556 18.3333V1.66667C15.5556 1.22464 15.38 0.800716 15.0674 0.488155C14.7548 0.175595 14.3309 0 13.8889 0H1.66667C1.22464 0 0.800716 0.175595 0.488155 0.488155C0.175595 0.800716 0 1.22464 0 1.66667ZM7.77778 5C7.77778 4.85266 7.83631 4.71135 7.9405 4.60716C8.04468 4.50298 8.18599 4.44444 8.33333 4.44444H12.7778C12.9251 4.44444 13.0664 4.50298 13.1706 4.60716C13.2748 4.71135 13.3333 4.85266 13.3333 5C13.3333 5.14734 13.2748 5.28865 13.1706 5.39284C13.0664 5.49702 12.9251 5.55556 12.7778 5.55556H8.33333C8.18599 5.55556 8.04468 5.49702 7.9405 5.39284C7.83631 5.28865 7.77778 5.14734 7.77778 5ZM8.33333 6.66667C8.18599 6.66667 8.04468 6.7252 7.9405 6.82938C7.83631 6.93357 7.77778 7.07488 7.77778 7.22222C7.77778 7.36957 7.83631 7.51087 7.9405 7.61506C8.04468 7.71925 8.18599 7.77778 8.33333 7.77778H12.7778C12.9251 7.77778 13.0664 7.71925 13.1706 7.61506C13.2748 7.51087 13.3333 7.36957 13.3333 7.22222C13.3333 7.07488 13.2748 6.93357 13.1706 6.82938C13.0664 6.7252 12.9251 6.66667 12.7778 6.66667H8.33333ZM7.77778 12.2222C7.77778 12.0749 7.83631 11.9336 7.9405 11.8294C8.04468 11.7252 8.18599 11.6667 8.33333 11.6667H12.7778C12.9251 11.6667 13.0664 11.7252 13.1706 11.8294C13.2748 11.9336 13.3333 12.0749 13.3333 12.2222C13.3333 12.3696 13.2748 12.5109 13.1706 12.6151C13.0664 12.7192 12.9251 12.7778 12.7778 12.7778H8.33333C8.18599 12.7778 8.04468 12.7192 7.9405 12.6151C7.83631 12.5109 7.77778 12.3696 7.77778 12.2222ZM8.33333 13.8889C8.18599 13.8889 8.04468 13.9474 7.9405 14.0516C7.83631 14.1558 7.77778 14.2971 7.77778 14.4444C7.77778 14.5918 7.83631 14.7331 7.9405 14.8373C8.04468 14.9415 8.18599 15 8.33333 15H12.7778C12.9251 15 13.0664 14.9415 13.1706 14.8373C13.2748 14.7331 13.3333 14.5918 13.3333 14.4444C13.3333 14.2971 13.2748 14.1558 13.1706 14.0516C13.0664 13.9474 12.9251 13.8889 12.7778 13.8889H8.33333ZM3.33333 12.2222V13.8889H5V12.2222H3.33333ZM2.77778 11.1111H5.55556C5.7029 11.1111 5.84421 11.1696 5.94839 11.2738C6.05258 11.378 6.11111 11.5193 6.11111 11.6667V14.4444C6.11111 14.5918 6.05258 14.7331 5.94839 14.8373C5.84421 14.9415 5.7029 15 5.55556 15H2.77778C2.63044 15 2.48913 14.9415 2.38494 14.8373C2.28075 14.7331 2.22222 14.5918 2.22222 14.4444V11.6667C2.22222 11.5193 2.28075 11.378 2.38494 11.2738C2.48913 11.1696 2.63044 11.1111 2.77778 11.1111ZM6.50389 5.39278C6.60509 5.288 6.66109 5.14766 6.65982 5.002C6.65855 4.85633 6.60013 4.71699 6.49712 4.61399C6.39412 4.51099 6.25478 4.45256 6.10911 4.45129C5.96345 4.45003 5.82311 4.50602 5.71833 4.60722L3.88889 6.43667L3.17056 5.71833C3.06578 5.61713 2.92544 5.56114 2.77978 5.5624C2.63411 5.56367 2.49477 5.6221 2.39177 5.7251C2.28876 5.82811 2.23034 5.96745 2.22907 6.11311C2.2278 6.25878 2.2838 6.39911 2.385 6.50389L3.88889 8.00778L6.50389 5.39278Z" fill="#1C1C1C"/>
</svg>
