<svg width="17" height="20" viewBox="0 0 17 20" fill="none" xmlns="http://www.w3.org/2000/svg">
<path d="M8.09102 15.019C8.37758 15.019 8.61795 14.9219 8.81214 14.7277C9.00565 14.5342 9.1024 14.2941 9.1024 14.0076V9.96207C9.1024 9.67552 9.00565 9.43515 8.81214 9.24096C8.61795 9.04745 8.37758 8.9507 8.09102 8.9507C7.80447 8.9507 7.56443 9.04745 7.37092 9.24096C7.17674 9.43515 7.07965 9.67552 7.07965 9.96207V14.0076C7.07965 14.2941 7.17674 14.5342 7.37092 14.7277C7.56443 14.9219 7.80447 15.019 8.09102 15.019ZM8.09102 6.92794C8.37758 6.92794 8.61795 6.83085 8.81214 6.63666C9.00565 6.44315 9.1024 6.20312 9.1024 5.91656C9.1024 5.63 9.00565 5.38963 8.81214 5.19545C8.61795 5.00194 8.37758 4.90518 8.09102 4.90518C7.80447 4.90518 7.56443 5.00194 7.37092 5.19545C7.17674 5.38963 7.07965 5.63 7.07965 5.91656C7.07965 6.20312 7.17674 6.44315 7.37092 6.63666C7.56443 6.83085 7.80447 6.92794 8.09102 6.92794ZM8.09102 20H7.83818C7.7539 20 7.67804 19.9831 7.61062 19.9494C5.40244 19.2583 3.58196 17.8886 2.14918 15.8402C0.716393 13.7925 0 11.5297 0 9.05183V4.27307C0 3.85166 0.122377 3.4724 0.36713 3.13527C0.611209 2.79815 0.927097 2.55373 1.31479 2.40202L7.38306 0.126422C7.61905 0.0421407 7.85504 0 8.09102 0C8.32701 0 8.563 0.0421407 8.79899 0.126422L14.8673 2.40202C15.255 2.55373 15.5712 2.79815 15.8159 3.13527C16.06 3.4724 16.182 3.85166 16.182 4.27307V9.05183C16.182 11.5297 15.4657 13.7925 14.0329 15.8402C12.6001 17.8886 10.7796 19.2583 8.57143 19.9494C8.48715 19.9831 8.32701 20 8.09102 20Z" fill="#1C1C1C"/>
</svg>
