<svg width="20" height="20" viewBox="0 0 20 20" fill="none" xmlns="http://www.w3.org/2000/svg">
<path d="M13.4295 0.642218C13.226 0.438611 12.9843 0.2771 12.7182 0.166908C12.4522 0.0567154 12.1671 0 11.8792 0C11.5913 0 11.3062 0.0567154 11.0402 0.166908C10.7741 0.2771 10.5324 0.438611 10.3289 0.642218L0.642218 10.3289C0.438611 10.5324 0.2771 10.7741 0.166908 11.0402C0.0567154 11.3062 0 11.5913 0 11.8792C0 12.1671 0.0567154 12.4522 0.166908 12.7182C0.2771 12.9843 0.438611 13.226 0.642218 13.4295L1.61314 14.4005C2.12303 14.9103 2.8484 14.8226 3.2994 14.5758C3.59635 14.4138 3.93776 14.3523 4.27258 14.4005C4.6074 14.4487 4.9176 14.604 5.15679 14.8432C5.39598 15.0824 5.5513 15.3926 5.59949 15.7274C5.64768 16.0622 5.58617 16.4037 5.42415 16.7006C5.17735 17.1516 5.09091 17.8782 5.59954 18.3881L6.57046 19.3578C6.77405 19.5614 7.01575 19.7229 7.28176 19.8331C7.54776 19.9433 7.83287 20 8.1208 20C8.40873 20 8.69384 19.9433 8.95985 19.8331C9.22586 19.7229 9.46756 19.5614 9.67114 19.3578L19.3578 9.67114C19.5614 9.46756 19.7229 9.22586 19.8331 8.95985C19.9433 8.69384 20 8.40873 20 8.1208C20 7.83287 19.9433 7.54776 19.8331 7.28176C19.7229 7.01575 19.5614 6.77405 19.3578 6.57046L18.3869 5.59954C17.8782 5.09091 17.1529 5.17735 16.7018 5.42415C16.4049 5.58617 16.0635 5.64768 15.7287 5.59949C15.3939 5.5513 15.0836 5.39598 14.8445 5.15679C14.6053 4.9176 14.45 4.6074 14.4018 4.27258C14.3536 3.93776 14.4151 3.59635 14.5771 3.2994C14.8226 2.8484 14.9103 2.12177 14.4017 1.61314L13.4295 0.642218Z" fill="#1C1C1C"/>
</svg>
