<svg width="18" height="14" viewBox="0 0 18 14" fill="none" xmlns="http://www.w3.org/2000/svg">
<path d="M14.8334 0.333374C15.4711 0.333339 16.0847 0.576978 16.5486 1.01444C17.0126 1.45191 17.2918 2.05013 17.3292 2.68671L17.3334 2.83337V4.34754C17.3315 4.57261 17.2709 4.79328 17.1574 4.98769C17.044 5.1821 16.8818 5.34349 16.6867 5.45587L16.5976 5.50421C16.328 5.63654 16.0991 5.83927 15.9353 6.09096C15.7714 6.34264 15.6786 6.63394 15.6666 6.93403C15.6546 7.23413 15.724 7.53188 15.8673 7.79581C16.0107 8.05973 16.2227 8.28002 16.4809 8.43337L16.5976 8.49587C16.9584 8.67421 17.2809 9.04254 17.3276 9.52921L17.3334 9.65254V11.1667C17.3335 11.8044 17.0898 12.418 16.6523 12.8819C16.2149 13.3459 15.6167 13.6251 14.9801 13.6625L14.8334 13.6667H3.16675C2.52907 13.6667 1.91549 13.4231 1.45153 12.9856C0.987576 12.5482 0.708325 11.95 0.670915 11.3134L0.666748 11.1667V9.65254C0.666748 9.14754 0.960081 8.75421 1.31341 8.54421L1.40258 8.49587C1.67219 8.36354 1.90103 8.16081 2.06491 7.90912C2.22879 7.65744 2.32161 7.36615 2.33356 7.06605C2.34551 6.76595 2.27615 6.4682 2.13281 6.20427C1.98947 5.94035 1.77748 5.72006 1.51925 5.56671L1.40258 5.50421C1.04175 5.32587 0.719248 4.95754 0.672581 4.47087L0.666748 4.34837V2.83337C0.666713 2.1957 0.910352 1.58211 1.34782 1.11816C1.78528 0.654202 2.3835 0.374951 3.02008 0.337541L3.16675 0.333374H14.8334ZM7.33341 4.50004C7.1124 4.50004 6.90044 4.58784 6.74416 4.74412C6.58788 4.9004 6.50008 5.11236 6.50008 5.33337V8.66671C6.50008 8.88772 6.58788 9.09968 6.74416 9.25596C6.90044 9.41224 7.1124 9.50004 7.33341 9.50004C7.55443 9.50004 7.76639 9.41224 7.92267 9.25596C8.07895 9.09968 8.16675 8.88772 8.16675 8.66671V5.33337C8.16675 5.11236 8.07895 4.9004 7.92267 4.74412C7.76639 4.58784 7.55443 4.50004 7.33341 4.50004Z" fill="black"/>
</svg>
