<svg width="22" height="20" viewBox="0 0 22 20" fill="none" xmlns="http://www.w3.org/2000/svg">
<path d="M21.8888 5.43333L20.7337 1.68889C20.4917 0.688889 19.6336 0 18.6326 0H3.35272C2.36267 0 1.49362 0.7 1.2626 1.68889L0.107537 5.43333C-0.398491 7.62222 1.04259 8.88889 1.09759 8.95556V17.7778C1.09759 19 2.08765 20 3.29772 20H18.6986C19.9087 20 20.8987 19 20.8987 17.7778V8.95556C22.1308 7.71111 22.0978 6.27778 21.8888 5.43333ZM12.0982 2.22222H14.2543L14.8484 6.13333C14.9474 6.92222 14.4193 7.77778 13.4403 7.77778C12.7033 7.77778 12.0982 7.12222 12.0982 6.32222V2.22222ZM4.88181 6.51111C4.7938 7.23333 4.22177 7.77778 3.55073 7.77778C2.52767 7.77778 2.06565 6.7 2.24166 5.95556L3.35272 2.22222H5.51984L4.88181 6.51111ZM9.34806 14.4444H7.69797V15.5556H9.34806C9.65608 15.5556 9.89809 15.8 9.89809 16.1111C9.89809 16.4222 9.65608 16.6667 9.34806 16.6667H7.14794C6.83992 16.6667 6.59791 16.4222 6.59791 16.1111V13.8889C6.59791 13.5778 6.83992 13.3333 7.14794 13.3333H8.79803V12.2222H7.14794C6.83992 12.2222 6.59791 11.9778 6.59791 11.6667C6.59791 11.3556 6.83992 11.1111 7.14794 11.1111H9.34806C9.65608 11.1111 9.89809 11.3556 9.89809 11.6667V13.8889C9.89809 14.2 9.65608 14.4444 9.34806 14.4444ZM9.89809 6.32222C9.89809 7.12222 9.29306 7.77778 8.47901 7.77778C7.65397 7.77778 7.04893 7 7.13694 6.13333L7.74197 2.22222H9.89809V6.32222ZM14.8484 16.6667C14.5404 16.6667 14.2983 16.4222 14.2983 16.1111V14.4444H12.6482C12.3402 14.4444 12.0982 14.2 12.0982 13.8889V11.6667C12.0982 11.3556 12.3402 11.1111 12.6482 11.1111C12.9563 11.1111 13.1983 11.3556 13.1983 11.6667V13.3333H14.2983V11.6667C14.2983 11.3556 14.5404 11.1111 14.8484 11.1111C15.1564 11.1111 15.3984 11.3556 15.3984 11.6667V16.1111C15.3984 16.4222 15.1564 16.6667 14.8484 16.6667ZM18.4456 7.77778C17.7745 7.77778 17.1915 7.23333 17.1145 6.51111L16.4765 2.22222L18.5996 2.21111L19.7547 5.95556C19.9307 6.7 19.4796 7.77778 18.4456 7.77778Z" fill="#1C1C1C"/>
</svg>
