<svg width="209" height="146" viewBox="0 0 209 146" fill="none" xmlns="http://www.w3.org/2000/svg">
<path fill-rule="evenodd" clip-rule="evenodd" d="M131.135 1.03085H199.781C200.894 1.03533 201.96 1.47987 202.747 2.26762C203.534 3.05538 203.978 4.12251 203.983 5.23655V51.9591H204.391C205.615 51.9636 206.787 52.4535 207.651 53.3216C208.515 54.1896 209 55.3651 209 56.5905V61.6986C208.996 62.9436 208.5 64.1363 207.62 65.0167C206.741 65.897 205.549 66.3936 204.306 66.3981H171.871C195.972 68.5435 209.748 90.9853 208.252 120.17H186.804C186.428 126.678 183.581 132.795 178.846 137.27C174.11 141.744 167.845 144.237 161.334 144.237C154.822 144.237 148.557 141.744 143.822 137.27C139.087 132.795 136.239 126.678 135.864 120.17H71.2315C71.2315 119.71 71.2315 119.25 71.2315 118.808C71.2731 122.109 71.0798 125.409 70.6532 128.683L57.1995 122.332C56.8196 126.498 55.4427 130.511 53.1852 134.031C50.9278 137.551 47.8563 140.475 44.2309 142.554C40.6055 144.634 36.5328 145.809 32.3578 145.979C28.1828 146.148 24.0284 145.309 20.2463 143.531C16.4641 141.752 13.1657 139.088 10.6302 135.763C8.09474 132.438 6.39689 128.551 5.68042 124.43C4.96395 120.308 5.24997 116.075 6.51424 112.088C7.77851 108.101 9.98382 104.478 12.9434 101.525L0 95.3443C10.7834 83.0677 23.8118 77.9084 39.5447 81.4501C45.1745 82.8804 50.4471 84.1574 39.4086 81.4501C42.1427 60.8719 48.2032 40.8762 57.3525 22.2467L49.3245 22.1275C47.6237 22.1275 45.8378 22.5532 44.6982 21.7188C43.686 21.6453 42.708 21.3203 41.8527 20.7733C40.9975 20.2263 40.2919 19.4745 39.7998 18.5858C38.6409 16.6364 38.0516 14.4006 38.099 12.1326C38.0521 9.85919 38.6412 7.61801 39.7998 5.66223C40.5726 4.34654 41.7736 3.33664 43.2015 2.80167C43.1758 2.63237 43.1758 2.46016 43.2015 2.29086C45.0894 -0.79106 48.8143 0.128407 52.1309 0.128407L55.3625 0.332732C57.7575 0.661469 60.0671 1.4476 62.1659 2.64843L65.8568 4.72574H68.8503L78.9193 6.66683C82.2019 7.31387 82.6781 7.04143 81.9128 11.0769C81.8086 11.5957 81.6722 12.1075 81.5046 12.6093C80.5181 15.555 79.8037 14.4653 76.6742 13.8353L67.2685 11.9112C67.6257 15.7083 66.4181 20.4248 64.7342 25.7883C70.1259 30.3686 72.5751 36.89 68.8673 45.5058L59.8868 73.209C74.9563 83.902 84.0048 93.6415 84.5321 109.46H103.633C115.913 100.146 113.838 83.5615 100.401 72.9706V66.3981V56.4542C100.401 53.2872 102.102 51.8569 105.248 51.9591H126.934V5.23655C126.939 4.12251 127.383 3.05538 128.17 2.26762C128.956 1.47987 130.022 1.03533 131.135 1.03085ZM41.4326 114.977L28.5912 108.966C26.2805 109.506 24.1951 110.753 22.6244 112.534C21.0536 114.315 20.0753 116.54 19.8253 118.903C19.5753 121.265 20.066 123.647 21.2292 125.717C22.3924 127.788 24.1705 129.444 26.3168 130.458C28.4631 131.471 30.8711 131.79 33.2069 131.371C35.5426 130.952 37.6902 129.816 39.3517 128.12C41.0132 126.424 42.1062 124.252 42.4791 121.906C42.852 119.56 42.4862 117.156 41.4326 115.028V114.977ZM43.3035 5.56007C43.4566 9.86794 43.7288 15.4018 43.9329 19.1818C43.5318 18.8234 43.1826 18.4108 42.8953 17.9558C41.8544 16.1707 41.3302 14.1308 41.3816 12.0644C41.3298 10.0034 41.8541 7.96883 42.8953 6.19007C43.0314 5.98575 43.1675 5.78142 43.3035 5.61115V5.56007ZM167.057 8.26739C168.079 8.27202 169.058 8.68228 169.778 9.40821C170.387 10.0268 170.776 10.8291 170.883 11.691C170.991 12.5528 170.812 13.4261 170.374 14.1758C172.375 14.4774 174.326 15.0503 176.174 15.8785C184.678 20.1353 189.338 26.7929 189.338 36.6857C189.339 36.9741 189.231 37.2521 189.035 37.4637C188.839 37.6754 188.571 37.805 188.284 37.8265H145.882C145.733 37.8265 145.585 37.7969 145.448 37.7394C145.311 37.6818 145.186 37.5975 145.082 37.4914C144.977 37.3852 144.895 37.2593 144.84 37.121C144.784 36.9827 144.757 36.8347 144.759 36.6857C144.624 32.2995 145.806 27.9736 148.153 24.2673C150.5 20.5609 153.903 17.6447 157.924 15.8956C159.767 15.0574 161.72 14.4842 163.723 14.1928C163.283 13.444 163.102 12.57 163.209 11.7075C163.317 10.8449 163.707 10.0424 164.319 9.42523C165.044 8.69672 166.029 8.2864 167.057 8.28441V8.26739ZM140.082 44.416V41.232C140.079 41.1881 140.086 41.1442 140.101 41.1029C140.116 41.0617 140.14 41.024 140.17 40.9921C140.2 40.9602 140.237 40.9349 140.277 40.9176C140.318 40.9002 140.361 40.8914 140.405 40.8914H193.539C193.583 40.8914 193.627 40.9002 193.667 40.9176C193.707 40.9349 193.744 40.9602 193.774 40.9921C193.804 41.024 193.828 41.0617 193.843 41.1029C193.858 41.1442 193.865 41.1881 193.862 41.232V44.416C193.862 44.5018 193.828 44.5841 193.768 44.6448C193.707 44.7055 193.625 44.7396 193.539 44.7396H140.405C140.319 44.7396 140.237 44.7055 140.176 44.6448C140.116 44.5841 140.082 44.5018 140.082 44.416ZM172.551 120.204C172.438 123.106 171.207 125.852 169.115 127.866C167.024 129.88 164.235 131.004 161.334 131.004C158.432 131.004 155.643 129.88 153.552 127.866C151.461 125.852 150.23 123.106 150.117 120.204H172.551Z" fill="#FF4545"/>
</svg>
