<svg width="9" height="8" viewBox="0 0 9 8" fill="none" xmlns="http://www.w3.org/2000/svg">
<path d="M4.03882 1.1011C4.21017 0.691981 4.78983 0.691981 4.96118 1.1011L5.57823 2.57434C5.65032 2.74646 5.81225 2.86411 5.99822 2.87948L7.59003 3.01107C8.03208 3.04761 8.2112 3.5989 7.87506 3.88829L6.6646 4.9304C6.52319 5.05214 6.46134 5.24251 6.50418 5.42412L6.87093 6.97869C6.97277 7.4104 6.50382 7.75111 6.12472 7.52084L4.75957 6.69166C4.60008 6.59479 4.39992 6.59479 4.24043 6.69166L2.87528 7.52084C2.49618 7.75111 2.02723 7.4104 2.12907 6.97869L2.49582 5.42412C2.53866 5.24251 2.47681 5.05214 2.3354 4.9304L1.12494 3.88829C0.788797 3.5989 0.96792 3.04762 1.40997 3.01107L3.00178 2.87948C3.18775 2.86411 3.34968 2.74646 3.42177 2.57434L4.03882 1.1011Z" fill="#FFC90A"/>
</svg>
