<svg width="83" height="58" viewBox="0 0 83 58" fill="none" xmlns="http://www.w3.org/2000/svg">
<path fill-rule="evenodd" clip-rule="evenodd" d="M52.0776 0.409514H79.339C79.781 0.411295 80.2043 0.587893 80.5168 0.900836C80.8293 1.21378 81.0056 1.63771 81.0074 2.08027V20.6413H81.1695C81.6556 20.6431 82.1212 20.8377 82.4643 21.1825C82.8074 21.5274 83 21.9943 83 22.4811V24.5104C82.9982 25.005 82.8012 25.4788 82.452 25.8285C82.1028 26.1783 81.6296 26.3755 81.1357 26.3773H68.2548C77.826 27.2296 83.2972 36.1448 82.7028 47.7387H74.1853C74.0361 50.324 72.9054 52.7543 71.0248 54.5318C69.1443 56.3093 66.6563 57.2995 64.0704 57.2995C61.4844 57.2995 58.9964 56.3093 57.1159 54.5318C55.2353 52.7543 54.1046 50.324 53.9554 47.7387H28.2881C28.2881 47.5561 28.2881 47.3734 28.2881 47.1976C28.3046 48.5091 28.2279 49.8202 28.0584 51.1208L22.7156 48.5978C22.5647 50.2526 22.0179 51.8467 21.1214 53.2451C20.2249 54.6435 19.0051 55.8049 17.5654 56.6311C16.1256 57.4573 14.5083 57.9239 12.8502 57.9915C11.1922 58.059 9.54237 57.7254 8.04038 57.019C6.53839 56.3126 5.22848 55.2542 4.22157 53.9333C3.21466 52.6124 2.54039 51.0681 2.25586 49.4309C1.97133 47.7938 2.08491 46.1121 2.58699 44.5282C3.08907 42.9443 3.96487 41.5049 5.14022 40.3319L0 37.8765C4.28239 32.9995 9.45638 30.9499 15.7043 32.3569C17.9401 32.9251 20.034 33.4324 15.6503 32.3569C16.7361 24.182 19.1429 16.2385 22.7764 8.83772L19.5882 8.79037C18.9128 8.79037 18.2035 8.95948 17.751 8.62803C17.349 8.59882 16.9606 8.46972 16.6209 8.25241C16.2813 8.0351 16.0011 7.73643 15.8057 7.38342C15.3454 6.60899 15.1114 5.72078 15.1302 4.81978C15.1116 3.91667 15.3456 3.02633 15.8057 2.24938C16.1126 1.72671 16.5895 1.32551 17.1566 1.11299C17.1464 1.04573 17.1464 0.977323 17.1566 0.910066C17.9063 -0.314257 19.3856 0.0510109 20.7027 0.0510109L21.9861 0.132181C22.9372 0.262775 23.8544 0.575075 24.6879 1.05211L26.1536 1.87735H27.3424L31.3411 2.64847C32.6448 2.90551 32.8339 2.79728 32.5299 4.4004C32.4886 4.6065 32.4344 4.80982 32.3678 5.00918C31.9761 6.17939 31.6924 5.74648 30.4495 5.4962L26.7143 4.73185C26.8561 6.24026 26.3765 8.11395 25.7078 10.2447C27.849 12.0643 28.8217 14.6549 27.3492 18.0776L23.7828 29.083C29.7673 33.3309 33.3608 37.2001 33.5702 43.484H41.1555C46.0323 39.784 45.2083 33.1956 39.8722 28.9883V26.3773V22.427C39.8722 21.1689 40.5476 20.6007 41.7972 20.6413H50.4093V2.08027C50.411 1.63771 50.5874 1.21378 50.8999 0.900836C51.2124 0.587893 51.6357 0.411295 52.0776 0.409514ZM16.4541 45.6756L11.3544 43.2879C10.4368 43.5025 9.60859 43.9979 8.98479 44.7053C8.36099 45.4126 7.9725 46.2969 7.87322 47.2353C7.77394 48.1738 7.96878 49.1199 8.43073 49.9424C8.89267 50.765 9.5988 51.4232 10.4512 51.8256C11.3035 52.2281 12.2598 52.3549 13.1874 52.1885C14.115 52.0221 14.9679 51.5707 15.6277 50.897C16.2875 50.2232 16.7216 49.3605 16.8697 48.4285C17.0178 47.4965 16.8725 46.5415 16.4541 45.6959V45.6756ZM17.1971 2.20879C17.2579 3.92014 17.366 6.11851 17.447 7.62016C17.2877 7.47779 17.1491 7.31387 17.035 7.13314C16.6216 6.42399 16.4134 5.61362 16.4338 4.79272C16.4133 3.97395 16.6215 3.1657 17.035 2.45907C17.089 2.3779 17.1431 2.29673 17.1971 2.22909V2.20879ZM66.3433 3.2843C66.7492 3.28614 67.1379 3.44912 67.424 3.73751C67.6658 3.98327 67.8201 4.30199 67.8628 4.64436C67.9055 4.98674 67.8344 5.33367 67.6604 5.63149C68.4552 5.75131 69.2301 5.97887 69.9637 6.30791C73.341 7.99896 75.1917 10.6438 75.1917 14.5738C75.1921 14.6883 75.149 14.7988 75.0713 14.8828C74.9936 14.9669 74.887 15.0184 74.7729 15.027H57.9338C57.8747 15.027 57.8162 15.0152 57.7617 14.9924C57.7071 14.9695 57.6577 14.936 57.6162 14.8938C57.5747 14.8517 57.542 14.8016 57.52 14.7467C57.498 14.6917 57.4871 14.633 57.488 14.5738C57.4343 12.8313 57.9038 11.1128 58.8359 9.64042C59.7679 8.16805 61.1195 7.00953 62.7161 6.31467C63.4482 5.9817 64.2236 5.75398 65.0194 5.63825C64.8442 5.34077 64.7725 4.99357 64.8152 4.65091C64.858 4.30825 65.0129 3.98943 65.2558 3.74427C65.544 3.45486 65.9351 3.29186 66.3433 3.29107V3.2843ZM55.6305 17.6447V16.3798C55.6296 16.3624 55.6323 16.3449 55.6383 16.3286C55.6443 16.3122 55.6536 16.2972 55.6656 16.2845C55.6777 16.2719 55.6921 16.2618 55.7081 16.2549C55.7242 16.248 55.7414 16.2445 55.7589 16.2445H76.8601C76.8775 16.2445 76.8948 16.248 76.9108 16.2549C76.9269 16.2618 76.9413 16.2719 76.9533 16.2845C76.9653 16.2972 76.9746 16.3122 76.9807 16.3286C76.9867 16.3449 76.9894 16.3624 76.9884 16.3798V17.6447C76.9884 17.6788 76.9749 17.7115 76.9509 17.7356C76.9268 17.7597 76.8941 17.7732 76.8601 17.7732H55.7589C55.7248 17.7732 55.6922 17.7597 55.6681 17.7356C55.6441 17.7115 55.6305 17.6788 55.6305 17.6447ZM68.525 47.7522C68.4801 48.9053 67.9912 49.9962 67.1607 50.7961C66.3302 51.5961 65.2227 52.0429 64.0704 52.0429C62.9181 52.0429 61.8105 51.5961 60.98 50.7961C60.1495 49.9962 59.6606 48.9053 59.6157 47.7522H68.525Z" fill="white"/>
</svg>
