<svg width="10" height="10" viewBox="0 0 10 10" fill="none" xmlns="http://www.w3.org/2000/svg">
<path d="M5 10C4.0111 10 3.0444 9.70676 2.22215 9.15735C1.3999 8.60794 0.759043 7.82705 0.380604 6.91342C0.00216642 5.99979 -0.0968502 4.99445 0.0960758 4.02455C0.289002 3.05465 0.765206 2.16373 1.46447 1.46447C2.16373 0.765206 3.05465 0.289002 4.02455 0.0960758C4.99445 -0.0968502 5.99979 0.00216642 6.91342 0.380604C7.82705 0.759043 8.60794 1.3999 9.15735 2.22215C9.70676 3.0444 10 4.0111 10 5C10 6.32608 9.47322 7.59785 8.53553 8.53553C7.59785 9.47322 6.32608 10 5 10ZM5 0.714288C4.15237 0.714288 3.32377 0.96564 2.61899 1.43656C1.9142 1.90748 1.36489 2.57682 1.04052 3.35993C0.716143 4.14304 0.631271 5.00476 0.796637 5.8361C0.962002 6.66745 1.37018 7.43109 1.96954 8.03046C2.56891 8.62983 3.33255 9.038 4.1639 9.20337C4.99525 9.36873 5.85696 9.28386 6.64007 8.95948C7.42318 8.63511 8.09252 8.0858 8.56344 7.38102C9.03436 6.67623 9.28571 5.84764 9.28571 5C9.28571 3.86336 8.83418 2.77327 8.03046 1.96954C7.22673 1.16582 6.13664 0.714288 5 0.714288Z" fill="#1C1C1C"/>
</svg>
